<svg xmlns="http://www.w3.org/2000/svg" viewBox="0 0 32 32" width="32" height="32">
  <!-- White background -->
  <rect width="32" height="32" fill="#ffffff"/>
  
  <!-- T-shirt main body -->
  <path d="M9 9h14c1 0 2 1 2 2v14c0 1-1 2-2 2H9c-1 0-2-1-2-2V11c0-1 1-2 2-2z" fill="#3b82f6" stroke="#2563eb" stroke-width="0.5"/>
  
  <!-- T-shirt sleeves -->
  <rect x="5" y="9" width="4" height="8" rx="2" fill="#3b82f6" stroke="#2563eb" stroke-width="0.5"/>
  <rect x="23" y="9" width="4" height="8" rx="2" fill="#3b82f6" stroke="#2563eb" stroke-width="0.5"/>
  
  <!-- Neckline -->
  <path d="M12 9c0-1.5 2-3 4-3s4 1.5 4 3v2c0 1-1 2-2 2h-4c-1 0-2-1-2-2V9z" fill="#ffffff" stroke="#2563eb" stroke-width="0.5"/>
  <path d="M14 9h4v2h-4z" fill="#e5f3ff"/>
  
  <!-- Clean lines for definition -->
  <line x1="9" y1="11" x2="23" y2="11" stroke="#2563eb" stroke-width="0.3" opacity="0.7"/>
  <line x1="9" y1="25" x2="23" y2="25" stroke="#2563eb" stroke-width="0.5"/>
</svg>
