<svg xmlns="http://www.w3.org/2000/svg" viewBox="0 0 32 32" width="32" height="32">
  <!-- White background -->
  <rect width="32" height="32" fill="#ffffff"/>
  
  <!-- Main shirt body - professional blue -->
  <path d="M9 8c0-1 1-2 2-2h1.5c0.5-1.5 2-2.5 4.5-2.5s4 1 4.5 2.5H23c1 0 2 1 2 2l-1 3v14c0 1-1 2-2 2H10c-1 0-2-1-2-2V11l-1-3z" fill="#1e40af" stroke="#1d4ed8" stroke-width="0.5"/>
  
  <!-- V-neck collar -->
  <path d="M14 6h4l-1 2h-2l-1-2z" fill="#ffffff"/>
  <path d="M15 6h2v2h-2z" fill="#1e40af"/>
  
  <!-- Sleeves -->
  <ellipse cx="8" cy="11" rx="2" ry="3" fill="#1e40af" stroke="#1d4ed8" stroke-width="0.3"/>
  <ellipse cx="24" cy="11" rx="2" ry="3" fill="#1e40af" stroke="#1d4ed8" stroke-width="0.3"/>
  
  <!-- Shirt details/seams -->
  <line x1="11" y1="10" x2="11" y2="25" stroke="#1d4ed8" stroke-width="0.3" opacity="0.6"/>
  <line x1="21" y1="10" x2="21" y2="25" stroke="#1d4ed8" stroke-width="0.3" opacity="0.6"/>
  
  <!-- Bottom hem -->
  <line x1="10" y1="25" x2="22" y2="25" stroke="#1d4ed8" stroke-width="0.5"/>
</svg>
